<svg width="1240" height="360" viewBox="0 0 1240 360" fill="none" xmlns="http://www.w3.org/2000/svg">
<path d="M0 8C0 3.58172 3.58172 0 8 0H1232C1236.42 0 1240 3.58172 1240 8V352C1240 356.418 1236.42 360 1232 360H7.99999C3.58171 360 0 356.418 0 352V8Z" fill="#00B8D9"/>
<path d="M0 8C0 3.58172 3.58172 0 8 0H1232C1236.42 0 1240 3.58172 1240 8V352C1240 356.418 1236.42 360 1232 360H7.99999C3.58171 360 0 356.418 0 352V8Z" fill="url(#paint0_linear_1_11282)"/>
<mask id="mask0_1_11282" style="mask-type:alpha" maskUnits="userSpaceOnUse" x="0" y="0" width="1240" height="360">
<rect width="1240" height="360" rx="8" fill="#00B8D9"/>
</mask>
<g mask="url(#mask0_1_11282)">
<g opacity="0.07">
<path d="M1668.09 348C1668.09 572.102 1473.69 754 1233.58 754C993.476 754 799.066 572.102 799.066 348C799.066 123.897 993.476 -58 1233.58 -58C1473.69 -58 1668.09 123.897 1668.09 348Z" stroke="white" stroke-width="4"/>
<path d="M1598.17 347.01C1598.17 535.562 1434.59 688.641 1232.52 688.641C1030.45 688.641 866.874 535.562 866.874 347.01C866.874 158.457 1030.45 5.37891 1232.52 5.37891C1434.59 5.37891 1598.17 158.457 1598.17 347.01Z" stroke="white" stroke-width="4"/>
<path d="M1536.72 348C1536.72 504.284 1401.13 631.204 1233.58 631.204C1066.03 631.204 930.445 504.284 930.445 348C930.445 191.716 1066.03 64.7959 1233.58 64.7959C1401.13 64.7959 1536.72 191.716 1536.72 348Z" stroke="white" stroke-width="4"/>
<path d="M1477.38 348C1477.38 473.656 1368.36 575.748 1233.58 575.748C1098.8 575.748 989.776 473.656 989.776 348C989.776 222.344 1098.8 120.252 1233.58 120.252C1368.36 120.252 1477.38 222.344 1477.38 348Z" stroke="white" stroke-width="4"/>
<path d="M1415.93 348C1415.93 441.935 1334.42 518.311 1233.58 518.311C1132.74 518.311 1051.23 441.935 1051.23 348C1051.23 254.065 1132.74 177.689 1233.58 177.689C1334.42 177.689 1415.93 254.065 1415.93 348Z" stroke="white" stroke-width="4"/>
<path d="M1370.15 348C1370.15 418.299 1309.13 475.514 1233.58 475.514C1158.03 475.514 1097.01 418.299 1097.01 348C1097.01 277.701 1158.03 220.485 1233.58 220.485C1309.13 220.485 1370.15 277.701 1370.15 348Z" stroke="white" stroke-width="4"/>
<path d="M1309.9 348C1309.9 387.199 1275.86 419.204 1233.58 419.204C1191.3 419.204 1157.26 387.199 1157.26 348C1157.26 308.8 1191.3 276.796 1233.58 276.796C1275.86 276.796 1309.9 308.8 1309.9 348Z" stroke="white" stroke-width="4"/>
</g>
</g>
<defs>
<linearGradient id="paint0_linear_1_11282" x1="1240" y1="112.289" x2="26.5713" y2="109.532" gradientUnits="userSpaceOnUse">
<stop stop-color="#6C57DB"/>
<stop offset="1" stop-color="#0C191F" stop-opacity="0.79"/>
</linearGradient>
</defs>
</svg>
